<svg xmlns="http://www.w3.org/2000/svg" viewBox="0 0 424.14 99.83"><defs><style>.cls-1{fill:#2de115;}.cls-2{fill:#fff;}</style></defs><title>Asset 4</title><g id="Layer_2" data-name="Layer 2"><g id="Layer_1-2" data-name="Layer 1"><path class="cls-1" d="M92.57,58.84,74.05,77.36V93.25l26.47-26.47A19.25,19.25,0,0,1,92.57,58.84Z"/><circle class="cls-1" cx="109.5" cy="49.91" r="11.27"/><path class="cls-1" d="M20.24,33,46.71,6.57v15.9L28.19,41A19.28,19.28,0,0,0,20.24,33Z"/><circle class="cls-1" cx="11.27" cy="49.91" r="11.27"/><path class="cls-2" d="M48.75,99.83Q36.33,95.2,40.86,83l31-83q12.42,4.64,7.93,16.66Z"/><path class="cls-1" d="M37.27,67.92l-9.08-9.08a19.25,19.25,0,0,1-8,7.94L33,79.49Z"/><path class="cls-1" d="M87.67,20.19,83.36,31.77,92.57,41a19.28,19.28,0,0,1,8-8Z"/><path class="cls-2" d="M167.91,74.27a21.25,21.25,0,0,1-8.44-1.66A20.3,20.3,0,0,1,148.3,61.33,21.83,21.83,0,0,1,146.71,53v-.11a21.48,21.48,0,0,1,6-15.1,20.49,20.49,0,0,1,6.8-4.6,21.94,21.94,0,0,1,8.74-1.69,26.83,26.83,0,0,1,5.28.48,21.15,21.15,0,0,1,4.35,1.3,19,19,0,0,1,3.6,2,24.8,24.8,0,0,1,3.07,2.6l-5.79,6.68a21.88,21.88,0,0,0-4.93-3.43,12.5,12.5,0,0,0-5.64-1.24,11.54,11.54,0,0,0-8.63,3.78,13.12,13.12,0,0,0-2.48,4.11,13.93,13.93,0,0,0-.88,5v.12a14.22,14.22,0,0,0,.88,5A13.25,13.25,0,0,0,159.56,62a11.33,11.33,0,0,0,8.65,3.84,12.6,12.6,0,0,0,6-1.3A23.28,23.28,0,0,0,179.08,61l5.79,5.84A30.54,30.54,0,0,1,181.56,70a19.39,19.39,0,0,1-8.21,3.81A27.31,27.31,0,0,1,167.91,74.27Z"/><path class="cls-2" d="M203.77,74.27A18,18,0,0,1,197,73a16.59,16.59,0,0,1-5.4-3.49A16,16,0,0,1,188,64.32a15.83,15.83,0,0,1-1.3-6.41v-.12a15.8,15.8,0,0,1,1.3-6.41,16.19,16.19,0,0,1,3.6-5.23A17.06,17.06,0,0,1,197,42.61a17.65,17.65,0,0,1,6.86-1.3,17.84,17.84,0,0,1,6.79,1.27,16.73,16.73,0,0,1,5.4,3.48,16.27,16.27,0,0,1,3.58,5.2,16,16,0,0,1,1.3,6.41v.12a16,16,0,0,1-1.3,6.41,16.23,16.23,0,0,1-3.61,5.22A17,17,0,0,1,210.62,73,17.82,17.82,0,0,1,203.77,74.27Zm.12-7.74a8.36,8.36,0,0,0,3.45-.68A7.61,7.61,0,0,0,209.91,64a8.07,8.07,0,0,0,1.62-2.75,9.63,9.63,0,0,0,.57-3.33v-.12a9.25,9.25,0,0,0-.6-3.34,8.39,8.39,0,0,0-1.71-2.78,8.55,8.55,0,0,0-2.66-1.92,7.93,7.93,0,0,0-3.36-.7,8.25,8.25,0,0,0-3.46.68,7.61,7.61,0,0,0-2.57,1.86,8,8,0,0,0-1.62,2.74,9.72,9.72,0,0,0-.56,3.34v.12a9.28,9.28,0,0,0,.59,3.34,8.25,8.25,0,0,0,1.71,2.77,8.34,8.34,0,0,0,2.63,1.92A7.89,7.89,0,0,0,203.89,66.53Z"/><path class="cls-2" d="M237.49,74.15a14,14,0,0,1-5.37-1.06,13.38,13.38,0,0,1-4.61-3.16,15.78,15.78,0,0,1-3.22-5.14,18.77,18.77,0,0,1-1.21-7v-.12a18.77,18.77,0,0,1,1.21-7,16.06,16.06,0,0,1,3.19-5.14,13,13,0,0,1,4.58-3.16,14.16,14.16,0,0,1,5.43-1.06,11.26,11.26,0,0,1,5.94,1.42,16,16,0,0,1,3.93,3.3V30.44h9V73.56h-9V69a14.29,14.29,0,0,1-4,3.69A10.93,10.93,0,0,1,237.49,74.15Zm2.31-7.62a7.3,7.3,0,0,0,3-.62,7.11,7.11,0,0,0,2.42-1.77,8.89,8.89,0,0,0,1.66-2.78,10,10,0,0,0,.62-3.57v-.12a10,10,0,0,0-.62-3.57,8.89,8.89,0,0,0-1.66-2.78,7.37,7.37,0,0,0-8.39-1.77,7.42,7.42,0,0,0-2.45,1.77,8.47,8.47,0,0,0-1.68,2.75,9.92,9.92,0,0,0-.62,3.6v.12a10,10,0,0,0,.62,3.57,8.4,8.4,0,0,0,1.68,2.78,7.42,7.42,0,0,0,2.45,1.77A7.31,7.31,0,0,0,239.8,66.53Z"/><path class="cls-2" d="M276.42,74.27a18.24,18.24,0,0,1-6.59-1.18,15.27,15.27,0,0,1-5.26-3.37,15.73,15.73,0,0,1-3.45-5.17,17.08,17.08,0,0,1-1.24-6.64v-.12A17.65,17.65,0,0,1,261,51.41a16.26,16.26,0,0,1,3.22-5.26,15,15,0,0,1,11.28-4.84,15.34,15.34,0,0,1,6.85,1.42,13.83,13.83,0,0,1,4.82,3.81A15.74,15.74,0,0,1,290,52,22.74,22.74,0,0,1,291,58.5c0,.35,0,.73,0,1.12s-.05.81-.09,1.24h-22a7.56,7.56,0,0,0,2.69,4.64,8,8,0,0,0,5.05,1.56,9.86,9.86,0,0,0,4-.77,13.46,13.46,0,0,0,3.66-2.48l5.14,4.55a15.8,15.8,0,0,1-5.43,4.34A16.78,16.78,0,0,1,276.42,74.27Zm5.79-19a8.77,8.77,0,0,0-2.13-4.87,5.86,5.86,0,0,0-4.55-1.87A6.06,6.06,0,0,0,271,50.35a9.14,9.14,0,0,0-2.27,4.9Z"/><path class="cls-2" d="M295.08,30.44h9V73.56h-9Z"/><path class="cls-2" d="M310,30.44h9V73.56h-9Z"/><path class="cls-2" d="M339.44,74.27a18.14,18.14,0,0,1-6.58-1.18,15.18,15.18,0,0,1-5.26-3.37,15.61,15.61,0,0,1-3.46-5.17,17.26,17.26,0,0,1-1.24-6.64v-.12a17.87,17.87,0,0,1,1.15-6.38,16.26,16.26,0,0,1,3.22-5.26,15.07,15.07,0,0,1,11.29-4.84,15.37,15.37,0,0,1,6.85,1.42,13.8,13.8,0,0,1,4.81,3.81A15.76,15.76,0,0,1,353.06,52,22.73,22.73,0,0,1,354,58.5c0,.35,0,.73,0,1.12s-.05.81-.09,1.24h-22a7.56,7.56,0,0,0,2.69,4.64,8.06,8.06,0,0,0,5.05,1.56,9.91,9.91,0,0,0,4-.77,13.46,13.46,0,0,0,3.66-2.48l5.14,4.55a15.93,15.93,0,0,1-5.44,4.34A16.72,16.72,0,0,1,339.44,74.27Zm5.79-19a8.77,8.77,0,0,0-2.13-4.87,5.84,5.84,0,0,0-4.54-1.87A6,6,0,0,0,334,50.35a9.23,9.23,0,0,0-2.28,4.9Z"/><path class="cls-2" d="M371.87,83.13a31.59,31.59,0,0,1-7.44-.86,28,28,0,0,1-6.56-2.45l3.07-6.73a27.06,27.06,0,0,0,5,2.12,19.6,19.6,0,0,0,5.7.77q4.61,0,6.83-2.18t2.21-6.44V65.82a16.12,16.12,0,0,1-4.37,3.78,11.8,11.8,0,0,1-6,1.36A14.66,14.66,0,0,1,365,70a13.11,13.11,0,0,1-4.49-2.87,13.74,13.74,0,0,1-3.1-4.64,16.08,16.08,0,0,1-1.15-6.29v-.12a15.79,15.79,0,0,1,1.18-6.29,14,14,0,0,1,3.13-4.63,13.11,13.11,0,0,1,4.49-2.87,14.5,14.5,0,0,1,5.25-1,11.93,11.93,0,0,1,6,1.36A17.45,17.45,0,0,1,380.55,46V41.9h9V66.41q0,8.45-4,12.47a13,13,0,0,1-5.64,3.24A28.31,28.31,0,0,1,371.87,83.13Zm1.06-19.61A8.76,8.76,0,0,0,376,63a7.32,7.32,0,0,0,2.46-1.51,7.12,7.12,0,0,0,1.62-2.33,7.41,7.41,0,0,0,.59-3v-.12a7.4,7.4,0,0,0-.59-3,7.12,7.12,0,0,0-1.62-2.33A7.32,7.32,0,0,0,376,49.28a8.76,8.76,0,0,0-3.07-.53,8.55,8.55,0,0,0-3,.53,7.34,7.34,0,0,0-2.42,1.51,7.15,7.15,0,0,0-1.63,2.33,7.4,7.4,0,0,0-.59,3v.12a6.87,6.87,0,0,0,2.19,5.32A7.81,7.81,0,0,0,372.93,63.52Z"/><path class="cls-2" d="M409.61,74.27A18.14,18.14,0,0,1,403,73.09a15.27,15.27,0,0,1-5.26-3.37,15.43,15.43,0,0,1-3.45-5.17,17.08,17.08,0,0,1-1.25-6.64v-.12a17.66,17.66,0,0,1,1.16-6.38,16.09,16.09,0,0,1,3.22-5.26,15,15,0,0,1,11.28-4.84,15.34,15.34,0,0,1,6.85,1.42,13.8,13.8,0,0,1,4.81,3.81A15.76,15.76,0,0,1,423.23,52a22.73,22.73,0,0,1,.91,6.47c0,.35,0,.73,0,1.12s-.05.81-.08,1.24H402a7.61,7.61,0,0,0,2.69,4.64,8.06,8.06,0,0,0,5.05,1.56,9.87,9.87,0,0,0,4-.77,13.46,13.46,0,0,0,3.66-2.48l5.14,4.55a16,16,0,0,1-5.43,4.34A16.79,16.79,0,0,1,409.61,74.27Zm5.79-19a8.7,8.7,0,0,0-2.12-4.87,5.88,5.88,0,0,0-4.55-1.87,6,6,0,0,0-4.58,1.84,9.14,9.14,0,0,0-2.27,4.9Z"/></g></g></svg>